<?xml version="1.0" encoding="UTF-8"?>
<svg width="219px" height="24px" viewBox="0 0 219 24" version="1.1" xmlns="http://www.w3.org/2000/svg" xmlns:xlink="http://www.w3.org/1999/xlink">
    <title>FranceConnect</title>
    <g id="Page-1" stroke="none" stroke-width="1" fill="none" fill-rule="evenodd">
        <g id="FranceConnect" fill-rule="nonzero">
            <path d="M40.54,6.758 L40.54,11.077 L44.91,11.077 L44.91,13.334 L40.54,13.334 L40.54,17.834 L38.062,17.834 L38.062,4.5 L45.433,4.5 L45.433,6.758 L40.54,6.758 Z" id="Path" fill="#000091"></path>
            <path d="M46.734,11.167 C46.734,8.075 49.212,6.578 51.689,6.578 C54.167,6.578 56.645,8.075 56.645,11.167 C56.645,14.259 54.167,15.756 51.689,15.756 C49.212,15.756 46.734,14.259 46.734,11.167 Z M54.167,11.167 C54.167,9.309 53.121,8.655 51.689,8.655 C50.258,8.655 49.212,9.309 49.212,11.167 C49.212,13.025 50.258,13.679 51.689,13.679 C53.121,13.679 54.167,13.025 54.167,11.167 Z" id="Shape" fill="#000091"></path>
            <path d="M58.599,6.758 L61.077,6.758 L61.077,8.075 L61.138,8.075 C61.661,7.06 62.707,6.578 63.753,6.578 C66.23,6.578 67.276,8.075 67.276,10.333 L67.276,15.576 L64.799,15.576 L64.799,10.695 C64.799,9.309 64.275,8.655 63.03,8.655 C61.784,8.655 61.077,9.49 61.077,10.876 L61.077,15.576 L58.599,15.576 L58.599,6.758 Z" id="Path" fill="#000091"></path>
            <path d="M69.23,6.758 L71.708,6.758 L71.708,8.075 L71.769,8.075 C72.292,7.06 73.338,6.578 74.384,6.578 C76.861,6.578 77.907,8.075 77.907,10.333 L77.907,15.576 L75.43,15.576 L75.43,10.695 C75.43,9.309 74.906,8.655 73.661,8.655 C72.415,8.655 71.708,9.49 71.708,10.876 L71.708,15.576 L69.23,15.576 L69.23,6.758 Z" id="Path" fill="#000091"></path>
            <path d="M84.629,13.499 C84.629,14.44 85.152,14.801 85.937,14.801 C86.46,14.801 86.983,14.62 87.245,14.44 L87.245,15.937 C86.722,16.118 86.198,16.298 85.414,16.298 C83.845,16.298 82.937,15.395 82.937,13.86 L82.937,8.836 L81.691,8.836 L81.691,6.758 L82.937,6.758 L82.937,4.5 L85.414,4.5 L85.414,6.758 L87.507,6.758 L87.507,8.836 L85.414,8.836 L84.629,13.499 Z" id="Path" fill="#000091"></path>
            <path d="M88.03,11.167 C88.03,8.435 90.246,6.578 92.985,6.578 C95.986,6.578 97.755,8.435 97.755,11.529 L97.755,12.252 L90.508,12.252 C90.77,13.499 91.739,13.86 92.985,13.86 C93.77,13.86 94.816,13.499 95.34,12.975 L96.847,14.44 C95.986,15.215 94.554,15.756 92.985,15.756 C90.246,15.756 88.03,14.078 88.03,11.167 Z M95.34,10.514 C95.34,9.49 94.554,8.655 92.985,8.655 C91.739,8.655 90.77,9.309 90.508,10.514 L95.34,10.514 Z" id="Shape" fill="#000091"></path>
            <path d="M106.097,13.499 C106.097,14.44 106.62,14.801 107.405,14.801 C107.928,14.801 108.451,14.62 108.713,14.44 L108.713,15.937 C108.19,16.118 107.666,16.298 106.882,16.298 C105.313,16.298 104.405,15.395 104.405,13.86 L104.405,8.836 L103.159,8.836 L103.159,6.758 L104.405,6.758 L104.405,4.5 L106.882,4.5 L106.882,6.758 L108.975,6.758 L108.975,8.836 L106.882,8.836 L106.097,13.499 Z" id="Path" fill="#000091"></path>
            <path d="M116.794,15.576 L116.794,14.259 L116.732,14.259 C116.209,15.215 115.225,15.756 114.117,15.756 C112.025,15.756 110.979,14.259 110.979,12.072 L110.979,6.758 L113.456,6.758 L113.456,11.529 C113.456,12.975 113.98,13.679 115.225,13.679 C116.471,13.679 116.794,12.794 116.794,11.529 L116.794,6.758 L119.271,6.758 L119.271,15.576 L116.794,15.576 Z" id="Path" fill="#000091"></path>
            <path d="M121.225,6.758 L123.702,6.758 L123.702,15.576 L121.225,15.576 L121.225,6.758 Z M121.225,3.666 L123.702,3.666 L123.702,5.744 L121.225,5.744 L121.225,3.666 Z" id="Shape" fill="#000091"></path>
            <path d="M125.656,11.167 C125.656,8.075 128.134,6.578 130.611,6.578 C133.089,6.578 135.566,8.075 135.566,11.167 C135.566,14.259 133.089,15.756 130.611,15.756 C128.134,15.756 125.656,14.259 125.656,11.167 Z M133.089,11.167 C133.089,9.309 132.043,8.655 130.611,8.655 C129.18,8.655 128.134,9.309 128.134,11.167 C128.134,13.025 129.18,13.679 130.611,13.679 C132.043,13.679 133.089,13.025 133.089,11.167 Z" id="Shape" fill="#000091"></path>
            <path d="M137.52,6.758 L139.997,6.758 L139.997,8.075 L140.059,8.075 C140.582,7.06 141.628,6.578 142.674,6.578 C145.151,6.578 146.197,8.075 146.197,10.333 L146.197,15.576 L143.72,15.576 L143.72,10.695 C143.72,9.309 143.196,8.655 141.951,8.655 C140.705,8.655 139.997,9.49 139.997,10.876 L139.997,15.576 L137.52,15.576 L137.52,6.758 Z" id="Path" fill="#000091"></path>
            <path d="M147.967,6.758 L150.445,6.758 L150.445,8.075 L150.506,8.075 C151.029,7.06 152.075,6.578 153.121,6.578 C155.599,6.578 156.645,8.075 156.645,10.333 L156.645,15.576 L154.167,15.576 L154.167,10.695 C154.167,9.309 153.644,8.655 152.398,8.655 C151.152,8.655 150.445,9.49 150.445,10.876 L150.445,15.576 L147.967,15.576 L147.967,6.758 Z" id="Path" fill="#000091"></path>
            <path d="M158.599,11.167 C158.599,8.435 160.815,6.578 163.554,6.578 C166.555,6.578 168.324,8.435 168.324,11.529 L168.324,12.252 L161.077,12.252 C161.338,13.499 162.308,13.86 163.554,13.86 C164.338,13.86 165.384,13.499 165.908,12.975 L167.415,14.44 C166.555,15.215 165.122,15.756 163.554,15.756 C160.815,15.756 158.599,14.078 158.599,11.167 Z M165.908,10.514 C165.908,9.49 165.122,8.655 163.554,8.655 C162.308,8.655 161.338,9.309 161.077,10.514 L165.908,10.514 Z" id="Shape" fill="#000091"></path>
            <path d="M169.57,13.499 C170.093,13.499 170.616,13.499 171.139,13.499 C171.662,13.499 172.185,13.499 172.708,13.499 C173.231,13.499 173.754,13.499 174.277,13.499 C174.8,13.499 175.323,13.499 175.846,13.499 L175.846,15.576 L169.57,15.576 L169.57,13.499 Z" id="Path" fill="#000091"></path>
            <path d="M177.276,11.167 C177.276,8.075 179.754,6.578 182.231,6.578 C184.709,6.578 187.186,8.075 187.186,11.167 C187.186,14.259 184.709,15.756 182.231,15.756 C179.754,15.756 177.276,14.259 177.276,11.167 Z M184.709,11.167 C184.709,9.309 183.663,8.655 182.231,8.655 C180.8,8.655 179.754,9.309 179.754,11.167 C179.754,13.025 180.8,13.679 182.231,13.679 C183.663,13.679 184.709,13.025 184.709,11.167 Z" id="Shape" fill="#000091"></path>
            <path d="M189.14,6.758 L191.617,6.758 L191.617,8.075 L191.679,8.075 C192.202,7.06 193.248,6.578 194.294,6.578 C196.771,6.578 197.817,8.075 197.817,10.333 L197.817,15.576 L195.34,15.576 L195.34,10.695 C195.34,9.309 194.817,8.655 193.571,8.655 C192.325,8.655 191.617,9.49 191.617,10.876 L191.617,15.576 L189.14,15.576 L189.14,6.758 Z" id="Path" fill="#000091"></path>
            <path d="M199.771,6.758 L202.249,6.758 L202.249,15.576 L199.771,15.576 L199.771,6.758 Z M199.771,3.666 L202.249,3.666 L202.249,5.744 L199.771,5.744 L199.771,3.666 Z" id="Shape" fill="#000091"></path>
            <path d="M204.203,11.167 C204.203,8.075 206.68,6.578 209.158,6.578 C211.636,6.578 214.113,8.075 214.113,11.167 C214.113,14.259 211.636,15.756 209.158,15.756 C206.68,15.756 204.203,14.259 204.203,11.167 Z M211.636,11.167 C211.636,9.309 210.59,8.655 209.158,8.655 C207.726,8.655 206.68,9.309 206.68,11.167 C206.68,13.025 207.726,13.679 209.158,13.679 C210.59,13.679 211.636,13.025 211.636,11.167 Z" id="Shape" fill="#000091"></path>
            <path d="M216.067,6.758 L218.544,6.758 L218.544,8.075 L218.606,8.075 C219.129,7.06 220.175,6.578 221.221,6.578 C223.698,6.578 224.744,8.075 224.744,10.333 L224.744,15.576 L222.267,15.576 L222.267,10.695 C222.267,9.309 221.744,8.655 220.498,8.655 C219.252,8.655 218.544,9.49 218.544,10.876 L218.544,15.576 L216.067,15.576 L216.067,6.758 Z" id="Path" fill="#000091"></path>
            <path d="M12,0 C5.373,0 0,5.373 0,12 C0,18.627 5.373,24 12,24 C18.627,24 24,18.627 24,12 C24,5.373 18.627,0 12,0 Z" id="Path" fill="#000091"></path>
            <path d="M12,0 C5.373,0 0,5.373 0,12 L12,12 L12,0 Z" id="Path" fill="#FFFFFF"></path>
            <path d="M0,12 C0,18.627 5.373,24 12,24 L12,12 L0,12 Z" id="Path" fill="#E1000F"></path>
        </g>
    </g>
</svg>
